<?xml version="1.0" encoding="UTF-8"?>
<svg id="Layer_2" data-name="Layer 2" xmlns="http://www.w3.org/2000/svg" viewBox="0 0 134.03 28.58">
  <defs>
    <style>
      .cls-1 {
        fill: #9ced10;
        stroke-width: 0px;
      }
    </style>
  </defs>
  <g id="Capa_5" data-name="Capa 5">
    <g>
      <path class="cls-1" d="M45.59,17.99l1.98,1.31c-1.53,1.91-3.87,3.1-6.64,3.1-4.94,0-8.5-3.77-8.5-8.67s3.56-8.64,8.5-8.64c2.77,0,5.11,1.17,6.64,3.1l-1.98,1.29c-1.05-1.29-2.63-2.17-4.66-2.17-3.89,0-6.06,3.18-6.06,6.42s2.17,6.42,6.06,6.42c2.03,0,3.61-.88,4.66-2.17Z"/>
      <path class="cls-1" d="M61.71,16.05c0,3.49-2.7,6.35-6.35,6.35s-6.35-2.87-6.35-6.35,2.7-6.35,6.35-6.35,6.35,2.87,6.35,6.35ZM59.49,16.05c0-2.48-1.74-4.3-4.13-4.3s-4.11,1.81-4.11,4.3,1.72,4.27,4.11,4.27,4.13-1.81,4.13-4.27Z"/>
      <path class="cls-1" d="M75.99,5.38v16.71h-2.17v-1.7c-.91,1.15-2.29,2.01-4.39,2.01-3.77,0-6.04-3.18-6.04-6.35s2.27-6.35,6.04-6.35c2.1,0,3.49.86,4.39,1.98v-6.3h2.17ZM73.81,16.05c0-2.39-1.53-4.3-4.18-4.3-2.51,0-4.01,1.86-4.01,4.3s1.5,4.27,4.01,4.27c2.65,0,4.18-1.89,4.18-4.27Z"/>
      <path class="cls-1" d="M90.31,16.98h-9.62c.33,1.98,1.81,3.34,4.18,3.34,1.31,0,2.51-.5,3.18-1.36l1.79,1.15c-1.07,1.46-2.84,2.29-4.97,2.29-4.01,0-6.49-2.87-6.49-6.35s2.58-6.35,6.14-6.35c3.29,0,6.37,2.77,5.8,7.28ZM88.12,15.12c-.29-2.05-1.55-3.37-3.61-3.37s-3.49,1.36-3.82,3.37h7.43Z"/>
      <path class="cls-1" d="M94.95,5.38v16.71h-2.17V5.38h2.17Z"/>
      <path class="cls-1" d="M97.91,6.6c0-.67.55-1.24,1.24-1.24s1.24.57,1.24,1.24-.55,1.24-1.24,1.24-1.24-.55-1.24-1.24ZM98.05,9.99h2.2v12.11h-2.2v-12.11Z"/>
      <path class="cls-1" d="M113.9,9.99v12.11h-2.17v-1.67c-.72,1.07-1.91,1.98-3.72,1.98-2.72,0-4.66-2.27-4.66-4.82v-7.59h2.17v6.95c0,1.72.72,3.39,2.98,3.39s3.22-1.96,3.22-3.39v-6.95h2.17Z"/>
      <path class="cls-1" d="M134.03,14.1v8h-2.17v-7.35c0-1.72-.84-2.98-2.6-2.98s-2.65,1.43-2.65,2.98v7.35h-2.17v-7.35c0-1.72-.84-2.98-2.58-2.98s-2.67,1.43-2.67,2.98v7.35h-2.17v-12.11h2.17v1.43c.67-.96,1.72-1.72,3.25-1.72s2.75.76,3.49,1.96c.76-1.07,2.05-1.96,3.87-1.96,2.29,0,4.25,1.84,4.25,4.39Z"/>
    </g>
    <g>
      <path class="cls-1" d="M14.95,26.72c-.1-2.94-.24-5.42-.35-8.14l-.03-.31c-.55-2.61-2.71-4.6-5.36-4.81h-.33c-2.66.03-4.96.06-7.53.14-.01,0-.03,0-.04,0l-1.31.02.02,1.52s0,.02,0,.04c0,0,0,.01,0,.02v.63c.02.36.23.67.53.81.11.04.22.07.34.06h.56c.05,0,.1,0,.15,0,.22,0,.45,0,.69,0,.14,0,.28-.01.42-.01l3.7-.05c.73.05,1.41.23,2.04.53.09.04.19.09.28.14-.16.19-.29.35-.41.5l-.36.41c-.09.11-.18.21-.27.31-.24.27-.49.54-.73.81l-3.76,4.22,1.58,1.48c.36.34.91.31,1.23-.06l1.73-1.94.09-.05.05-.06,1.92-2.13,1.17-1.3s0,.02.01.02h.01c.46.78.73,1.7.78,2.68h.01c.06,1.59.12,3.1.19,4.59,0,.06,0,.12.01.18l.03.75c.01.34.21.63.48.77.12.06.26.09.4.08l2.07-.08-.05-1.32c.02-.14.03-.3.02-.46Z"/>
      <path class="cls-1" d="M24.38,7.28c-2.5,1.56-4.58,2.92-6.87,4.37l-.25.18c-1.99,1.78-2.63,4.65-1.49,7.05l.16.29c1.36,2.28,2.54,4.26,3.9,6.45,0,.01.01.02.02.03l.67,1.13,1.3-.78s.02-.01.03-.02c0,0,0,0,.01,0l.54-.32c.31-.19.47-.53.44-.86-.01-.11-.05-.22-.11-.33l-.29-.48s-.04-.09-.07-.14c-.1-.2-.22-.39-.35-.59-.07-.12-.15-.24-.22-.36l-1.89-3.17c-.32-.65-.51-1.34-.56-2.03,0-.1-.01-.21-.02-.31.24.04.45.07.64.1l.54.11c.14.02.27.05.4.08.35.08.71.15,1.06.23l5.54,1.14.5-2.11c.11-.48-.19-.94-.67-1.04l-2.54-.53-.09-.05-.07-.02-2.8-.6-1.71-.37s0-.01.01-.02h-.02c.46-.8,1.12-1.5,1.94-2.02h0c1.35-.86,2.63-1.66,3.88-2.47.05-.03.1-.07.15-.1l.63-.4c.29-.18.44-.49.43-.8-.01-.13-.05-.27-.13-.39l-1.1-1.75-1.12.7c-.14.05-.27.12-.41.21Z"/>
      <path class="cls-1" d="M2.63,8.59c2.6,1.39,4.32,2.24,6.72,3.5l.78.39c2.54.83,5.34-.05,6.85-2.24l.34-.52c1.3-2.32,2.26-4.1,3.47-6.36,0-.01.01-.02.02-.04l.64-1.15-1.33-.74s-.02-.01-.03-.02c0,0,0,0-.01,0l-.55-.31c-.32-.18-.69-.15-.96.05-.09.07-.17.16-.23.26l-.27.49s-.06.08-.08.13c-.12.19-.22.39-.34.6-.06.12-.13.25-.2.37l-1.8,3.23c-.4.61-.91,1.11-1.48,1.5-.08.06-.17.12-.26.17-.09-.23-.16-.43-.23-.6l-.17-.52c-.05-.13-.09-.26-.14-.39-.11-.34-.22-.69-.33-1.03l-1.78-5.37-2.07.62c-.47.14-.72.63-.57,1.1l.82,2.47v.1s.02.05.02.07l.88,2.73.54,1.66s-.02,0-.03,0v.02c-.91,0-1.84-.22-2.72-.67h0c-1.41-.73-2.75-1.44-4.07-2.12-.06-.03-.11-.05-.17-.08l-.66-.35c-.3-.16-.65-.14-.91.03-.11.08-.21.18-.27.31l-.97,1.83.94.54c.18.09.47.25.61.33Z"/>
    </g>
  </g>
</svg>
